<?xml version="1.0" encoding="UTF-8"?>
<svg width="523px" height="163px" viewBox="0 0 523 163" version="1.1" xmlns="http://www.w3.org/2000/svg" xmlns:xlink="http://www.w3.org/1999/xlink">
    <!-- Generator: Sketch 52.5 (67469) - http://www.bohemiancoding.com/sketch -->
    <title>Corda_Master_Logo</title>
    <desc>Created with Sketch.</desc>
    <defs>
        <path d="M488.097,150.721 C467.498,170.318 418.37,166.152 418.37,127.5 C418.37,86.777 461.047,83.644 487.829,86.104 C487.828,86.055 487.828,86.006 487.827,85.957 C486.836,64.648 451.405,69.896 437.262,81.209 C432.835,74.849 425.337,63.511 422.261,58.385 C438.54,45.817 478.289,36.656 498.65,48.22 C519.012,59.783 522.995,80.011 523,90.304 C523,90.346 523,90.387 522.999,90.428 L523,170 L522.999,159.389 L489.039,159.389 L488.097,150.721 Z M354.47,149.783 C318.329,178.462 281.272,151.234 276.646,114.338 C270.886,68.386 307.299,31.889 354.175,47.793 L354.175,0 L389.905,0 L389.905,159.389 L355.514,159.389 L354.47,149.783 Z M354.175,111.065 L354.175,79.153 C338.692,72.093 314.78,71.832 312.607,103.87 C310.38,136.698 351.382,140.031 354.175,111.065 Z M217.029,58.173 C227.486,45.389 242.36,41.703 261.653,47.117 C258.751,63.1 256.757,73.9 255.67,79.516 C227.865,74.665 217.63,83.031 217.507,107.327 L217.507,108.224 C217.507,108.28 217.508,108.335 217.508,108.39 C217.508,108.404 217.507,108.418 217.507,108.432 L217.507,159.542 L181.777,159.542 L181.777,46.66 L216.167,46.66 L217.029,58.173 Z M92.228,55.484 C82.478,62.669 75.027,72.851 71.198,84.689 C67.511,81.974 62.971,80.372 58.061,80.372 C45.728,80.372 35.73,90.48 35.73,102.948 C35.73,115.417 45.728,125.525 58.061,125.525 C62.971,125.525 67.511,123.923 71.198,121.207 C75.027,133.046 82.478,143.227 92.228,150.413 C82.642,157.478 70.833,161.647 58.061,161.647 C25.995,161.647 0,135.367 0,102.948 C0,70.53 25.995,44.25 58.061,44.25 C70.833,44.25 82.642,48.419 92.228,55.484 Z M487.718,110.173 C477.052,110.3 453.003,106.431 453.557,124.175 C454.111,141.92 487.718,138.83 487.718,118.3 C487.718,111.515 487.722,111.541 487.718,110.173 Z M126.395,125.525 C114.062,125.525 104.064,115.417 104.064,102.948 C104.064,90.48 114.062,80.372 126.395,80.372 C138.728,80.372 148.727,90.48 148.727,102.948 C148.727,115.417 138.728,125.525 126.395,125.525 Z" id="path-1"></path>
    </defs>
    <g id="Page-1" stroke="none" stroke-width="1" fill="none" fill-rule="evenodd">
        <g id="Corda_Master_Logo">
            <g id="Group-5">
                <mask id="mask-2" fill="white">
                    <use xlink:href="#path-1"></use>
                </mask>
                <g id="Clip-4"></g>
                <polygon id="Fill-3" fill="#E0081C" mask="url(#mask-2)" points="0 170.04 523.08 170.04 523.08 0 0 0"></polygon>
            </g>
        </g>
    </g>
</svg>